<?xml version="1.0" encoding="utf-8"?>
<!-- Generator: Adobe Illustrator 13.0.0, SVG Export Plug-In . SVG Version: 6.00 Build 14948)  -->
<!DOCTYPE svg PUBLIC "-//W3C//DTD SVG 1.1//EN" "http://www.w3.org/Graphics/SVG/1.1/DTD/svg11.dtd">
<svg version="1.1" xmlns="http://www.w3.org/2000/svg" xmlns:xlink="http://www.w3.org/1999/xlink" x="0px" y="0px"
	 width="16.062px" height="13.099px" viewBox="0 0 16.062 13.099" enable-background="new 0 0 16.062 13.099" xml:space="preserve">
<g id="Green">
	<g>
		<path fill="#91D007" d="M15.493,7.868l0.038-0.067c-0.103-0.66-1.086-3.86-1.83-4.63c-0.203-0.212-0.37-0.416-0.702-0.611
			C10.308,0.993,3.918,0.044,3.62,0L3.571,0.013L3.55,0.06c0,0-0.025,1.323-0.029,1.472C3.181,1.418,0.531,2.223,0.531,6.4
			c0,4.18,1.149,5.619,4.256,6.135c0.663,0.077,1.414,0.161,2.191,0.181c2.176,0.013,4.513-0.389,5.955-1.018
			c0.934-0.405,1.526-0.679,1.901-1.014c0.135-0.111,0.482-0.73,0.426-0.774c-0.06-0.039-0.136-0.002-0.201,0.039
			c-0.629,0.38-2.156,1.103-3.638,1.131c-1.836,0.038-5.398-1.849-5.784-2.048c0,0-0.822-2.3-0.938-2.577
			C7.361,8.211,9.57,9.18,11.261,9.333C13.145,9.501,15.455,7.881,15.493,7.868z M7.738,5.333C7.766,4.55,8.095,3.829,8.667,3.295
			c0.573-0.534,1.319-0.813,2.099-0.786c1.614,0.06,2.882,1.419,2.83,3.031c-0.03,0.782-0.359,1.508-0.931,2.04
			c-0.572,0.533-1.319,0.814-2.099,0.786C8.952,8.309,7.685,6.946,7.738,5.333z"/>
		<path fill="#91D007" d="M10.722,4.03c-0.373-0.013-0.729,0.12-1.006,0.376C9.443,4.661,9.285,5.007,9.273,5.381
			c-0.027,0.773,0.58,1.424,1.354,1.452c0.375,0.015,0.731-0.119,1.006-0.373c0.272-0.255,0.431-0.603,0.444-0.978
			C12.104,4.708,11.494,4.057,10.722,4.03z M10.994,5.569c-0.396,0-0.72-0.214-0.72-0.479c0-0.265,0.323-0.479,0.72-0.479
			c0.396,0,0.719,0.214,0.719,0.479C11.713,5.354,11.39,5.569,10.994,5.569z"/>
	</g>
</g>
<g id="Green_Kopie" display="none">
	<g display="inline">
		<path fill="#333333" d="M16.023,8.311l0.039-0.066c-0.102-0.65-1.073-3.811-1.809-4.571c-0.201-0.209-0.364-0.411-0.693-0.604
			C10.904,1.522,4.594,0.585,4.3,0.542L4.252,0.555L4.231,0.601c0,0-0.025,1.307-0.028,1.453C3.866,1.942,0,2.821,0,6.946
			c0,4.126,2.385,5.464,5.453,5.973c0.654,0.076,1.396,0.159,2.164,0.18c2.148,0.011,4.455-0.384,5.88-1.004
			c0.922-0.401,1.508-0.67,1.878-1.002c0.133-0.11,0.476-0.722,0.419-0.765c-0.059-0.04-0.133-0.002-0.197,0.038
			c-0.622,0.375-2.13,1.09-3.594,1.116c-1.813,0.038-5.33-1.824-5.71-2.021c0,0-0.812-2.272-0.927-2.544
			c2.628,1.732,4.809,2.69,6.479,2.84C13.705,9.923,15.987,8.324,16.023,8.311z M8.367,5.808c0.027-0.772,0.352-1.486,0.917-2.013
			c0.564-0.527,1.302-0.801,2.072-0.776c1.595,0.059,2.846,1.401,2.794,2.994c-0.028,0.771-0.354,1.488-0.918,2.015
			c-0.564,0.526-1.302,0.802-2.073,0.774C9.565,8.746,8.313,7.401,8.367,5.808z"/>
		<path fill="#333333" d="M11.313,4.522c-0.37-0.013-0.722,0.118-0.994,0.37c-0.27,0.252-0.426,0.594-0.438,0.964
			C9.855,6.62,10.455,7.263,11.219,7.29c0.37,0.014,0.723-0.117,0.993-0.369c0.27-0.253,0.426-0.595,0.438-0.965
			C12.677,5.192,12.076,4.549,11.313,4.522z M11.582,6.04c-0.394,0-0.711-0.211-0.711-0.472c0-0.262,0.317-0.473,0.711-0.473
			c0.391,0,0.709,0.211,0.709,0.473C12.291,5.829,11.973,6.04,11.582,6.04z"/>
	</g>
	<g display="inline">
		<path fill="#666666" d="M16.023,7.853l0.039-0.067c-0.102-0.651-1.073-3.811-1.809-4.571c-0.201-0.209-0.364-0.411-0.693-0.604
			C10.904,1.063,4.594,0.126,4.3,0.083L4.252,0.096L4.231,0.142c0,0-0.025,1.307-0.028,1.453C3.866,1.483,0,2.362,0,6.487
			c0,4.126,2.385,5.464,5.453,5.973c0.654,0.076,1.396,0.159,2.163,0.179c2.148,0.012,4.455-0.383,5.881-1.004
			c0.922-0.401,1.508-0.67,1.878-1.001c0.133-0.11,0.476-0.722,0.419-0.765c-0.059-0.04-0.133-0.002-0.197,0.038
			c-0.622,0.374-2.13,1.089-3.594,1.116c-1.813,0.038-5.33-1.824-5.71-2.021c0,0-0.812-2.271-0.927-2.544
			c2.628,1.732,4.809,2.689,6.479,2.84C13.705,9.464,15.987,7.865,16.023,7.853z M8.367,5.349c0.027-0.773,0.352-1.486,0.917-2.013
			c0.564-0.527,1.302-0.802,2.072-0.776c1.595,0.06,2.846,1.402,2.794,2.994c-0.028,0.772-0.354,1.488-0.918,2.014
			c-0.564,0.526-1.302,0.803-2.073,0.775C9.565,8.287,8.314,6.942,8.367,5.349z"/>
		<path fill="#666666" d="M11.313,4.062c-0.37-0.013-0.722,0.119-0.994,0.371c-0.27,0.252-0.426,0.594-0.438,0.963
			C9.855,6.16,10.455,6.803,11.219,6.83c0.37,0.015,0.723-0.117,0.993-0.369c0.27-0.252,0.426-0.595,0.438-0.965
			C12.677,4.732,12.076,4.089,11.313,4.062z M11.582,5.582c-0.394,0-0.711-0.212-0.711-0.473c0-0.262,0.317-0.473,0.711-0.473
			c0.391,0,0.709,0.211,0.709,0.473C12.291,5.37,11.973,5.582,11.582,5.582z"/>
	</g>
</g>
</svg>
